<svg viewBox="0 0 32 32" xmlns="http://www.w3.org/2000/svg" xmlns:xlink="http://www.w3.org/1999/xlink" width="32.000000" height="32.000000" fill="none">
	<rect id="favicon" width="32.000000" height="32.000000" x="0.000000" y="0.000000" fill="rgb(255,255,255)" />
	<path id="" d="M25.3848 13.1211C24.0996 8.88281 20.3262 6.38086 15.9238 6.38086C10.2637 6.38086 5.95703 10.6738 5.95703 16.1973C5.95703 21.7891 10.4004 26 15.9238 26C20.4492 26 24.25 23.2246 25.4258 19.123L22.3086 18.1523C21.4062 21.1328 19.041 22.9648 15.9238 22.9648C12.0137 22.9648 9.30664 19.9297 9.30664 16.1973C9.30664 12.3418 12.0547 9.41602 15.9238 9.41602C19.041 9.41602 21.3926 11.2344 22.2812 14.1465L25.3848 13.1211Z" fill="rgb(0,0,0)" fill-rule="nonzero" />
</svg>
